<svg id="Layer_1" data-name="Layer 1" xmlns="http://www.w3.org/2000/svg" viewBox="0 0 232.57 79.74"><defs><style>.cls-1{fill:#4a71ff;}</style></defs><path class="cls-1" d="M99.33,38.43l-4,10.16H94l-4-10.16V48.59h-3V34.47h4.21l3.43,8.81,3.43-8.81h4.23V48.59h-3Z"/><path class="cls-1" d="M109.73,38.11c3,0,5.12,2.29,5.12,5.63v.59h-7.6a2.76,2.76,0,0,0,2.94,2.37,4.21,4.21,0,0,0,2.73-1l1.19,1.73a6.4,6.4,0,0,1-4.22,1.42,5.37,5.37,0,1,1-.16-10.73Zm-2.52,4.4h5a2.36,2.36,0,0,0-2.51-2.26A2.45,2.45,0,0,0,107.21,42.51Z"/><path class="cls-1" d="M129.47,42.13c0-1-.42-1.63-1.53-1.63a2.71,2.71,0,0,0-2.11,1.19v6.9h-2.71V42.13c0-1-.42-1.63-1.52-1.63a2.76,2.76,0,0,0-2.12,1.21v6.88h-2.69V38.37h2.69V39.7a4.51,4.51,0,0,1,3.35-1.59A2.7,2.7,0,0,1,125.66,40a4.34,4.34,0,0,1,3.51-1.86c1.89,0,3,1,3,3.09v7.39h-2.71Z"/><path class="cls-1" d="M134.17,43.47a5.41,5.41,0,1,1,5.39,5.37A5.18,5.18,0,0,1,134.17,43.47Zm8,0a2.64,2.64,0,1,0-5.23,0,2.64,2.64,0,1,0,5.23,0Z"/><path class="cls-1" d="M147,38.37h2.69v1.39a4.38,4.38,0,0,1,3.26-1.63v2.63a3.55,3.55,0,0,0-.74-.09,3.41,3.41,0,0,0-2.52,1.17v6.75H147Z"/><path class="cls-1" d="M155.48,50.34a1.36,1.36,0,0,0,1.42-.74l.38-.87-4.15-10.36H156l2.66,7.11,2.67-7.11h2.9l-4.8,11.89a3.73,3.73,0,0,1-3.88,2.47,7.81,7.81,0,0,1-1.33-.14l.4-2.42A2.3,2.3,0,0,0,155.48,50.34Z"/><path class="cls-1" d="M170.93,34.47h3V45.94h6v2.65h-9Z"/><path class="cls-1" d="M187.92,47.53a4.24,4.24,0,0,1-3.24,1.31,3.4,3.4,0,0,1-3.55-3.38c0-2.4,1.92-3.26,3.55-3.26a4.12,4.12,0,0,1,3.24,1.25V42c0-1-.89-1.72-2.24-1.72a4.34,4.34,0,0,0-3,1.21l-1-1.8a6.71,6.71,0,0,1,4.46-1.61c2.33,0,4.47.93,4.47,3.87v6.61h-2.69Zm0-2.67a2.69,2.69,0,0,0-2.16-.89c-1.06,0-1.92.55-1.92,1.55s.86,1.5,1.92,1.5a2.69,2.69,0,0,0,2.16-.89Z"/><path class="cls-1" d="M200.17,42.41c0-1.42-.74-1.91-1.88-1.91A2.93,2.93,0,0,0,196,41.71v6.88h-2.68V38.37H196V39.7a4.71,4.71,0,0,1,3.58-1.59,3,3,0,0,1,3.32,3.26v7.22h-2.69Z"/><path class="cls-1" d="M210.16,38.11c3.05,0,5.12,2.29,5.12,5.63v.59h-7.59a2.75,2.75,0,0,0,2.94,2.37,4.21,4.21,0,0,0,2.73-1l1.18,1.73a6.36,6.36,0,0,1-4.21,1.42,5.37,5.37,0,1,1-.17-10.73Zm-2.52,4.4h5a2.36,2.36,0,0,0-2.52-2.26A2.46,2.46,0,0,0,207.64,42.51Z"/><path class="cls-1" d="M69.65,52a17.8,17.8,0,0,0-15.5-5,11,11,0,0,1,.09-7,12.84,12.84,0,0,0,12.94-3.18A22.06,22.06,0,0,0,69.84,33a.91.91,0,0,0,0-.79.9.9,0,0,0-.59-.52,21.8,21.8,0,0,0-4.63-.86,12.89,12.89,0,0,0-11.4,6.9,10.92,10.92,0,0,1-3-2.14,10.74,10.74,0,0,1-2.13-3,12.9,12.9,0,0,0,6-16.1.93.93,0,0,0-1.22-.5,12.84,12.84,0,0,0-7.12,15.63,11.24,11.24,0,0,1-7.29,0,12.86,12.86,0,0,0-3.18-12.95A23,23,0,0,0,31.46,16a1,1,0,0,0-.75-.06.94.94,0,0,0-.54.53,12.9,12.9,0,0,0,6,16.1,11.17,11.17,0,0,1-5.14,5.14,12.88,12.88,0,0,0-11.4-6.9,21.66,21.66,0,0,0-4.62.86.92.92,0,0,0-.66.89.9.9,0,0,0,.08.36,12.84,12.84,0,0,0,15.63,7.12,10.87,10.87,0,0,1,.61,3.64A11,11,0,0,1,30.18,47a17.78,17.78,0,0,0-15.49,5c-.4.39-1.35,1.48-1.46,1.61a.9.9,0,0,0,.35,1.44,22.05,22.05,0,0,0,6.07,1.52,12.8,12.8,0,0,0,11.67-7.43,15.89,15.89,0,0,1,7.26,4.16A16.85,16.85,0,0,1,41,56.46c-.07.32-.15.63-.24.91a.54.54,0,0,0-.05.11q-.13.29-.24.57l-.06.14s0,0,0,.06L40,59l.13.07a17.6,17.6,0,0,0-.89,5.8c0,.28,0,.53,0,.79a23.32,23.32,0,0,1-4.81-1.11l-.86-.3L33,66l.86.3a24.15,24.15,0,0,0,5.62,1.24l0,.2.83-.11c.61,0,1.22.08,1.83.08s1.22,0,1.82-.08l.82.11,0-.2a25,25,0,0,0,5.61-1.23l.86-.31-.6-1.72-.86.3A22.64,22.64,0,0,1,45,65.7c0-.18,0-.34,0-.52V65a2.18,2.18,0,0,0,0-.25,17.77,17.77,0,0,0-.9-5.65l.13-.07-.42-.8c-.11-.29-.22-.58-.35-.84v0a7.86,7.86,0,0,1-.25-.93,16.16,16.16,0,0,1,2.45-3.15A15.89,15.89,0,0,1,53,49.14,12.87,12.87,0,0,0,70.8,55a.9.9,0,0,0,.46-.63.93.93,0,0,0-.19-.75C70.91,53.45,70.11,52.47,69.65,52Zm-5-19.36a14.64,14.64,0,0,1,3,.49,15.2,15.2,0,0,1-1.76,2.45A11,11,0,0,1,55,38.38,11.08,11.08,0,0,1,64.67,32.65Zm-46.24,3a11.67,11.67,0,0,1-1.84-2.44,15.48,15.48,0,0,1,3.06-.51,11.06,11.06,0,0,1,9.68,5.73A11,11,0,0,1,18.43,35.6Zm1.22,19.14a15.87,15.87,0,0,1-4.16-.93L16,53.3a16,16,0,0,1,13.5-4.53A11,11,0,0,1,19.65,54.74ZM50.27,20a11.54,11.54,0,0,1,2.5-1.88,11.12,11.12,0,0,1-5.28,12.78A11,11,0,0,1,50.27,20ZM43.81,47.1a6.13,6.13,0,0,1,5.27-4.39c-.39,1.79-1.67,5.4-5.6,5.91C43.58,48.07,43.69,47.56,43.81,47.1Zm-3,1.52c-3.93-.51-5.21-4.12-5.6-5.91a6.13,6.13,0,0,1,5.27,4.39C40.63,47.56,40.74,48.07,40.84,48.62Zm1.32-4a7.16,7.16,0,0,1-1.67-4.15,7.19,7.19,0,0,1,1.67-4.16,7.19,7.19,0,0,1,1.67,4.16A7.16,7.16,0,0,1,42.16,44.6Zm-11-23.41a11,11,0,0,1,.42-3A16.06,16.06,0,0,1,34.05,20a11,11,0,0,1,2.79,10.91A11.08,11.08,0,0,1,31.11,21.19ZM32,47.42a12.93,12.93,0,0,0,.55-3.72,12.7,12.7,0,0,0-.74-4.3,12.93,12.93,0,0,0,6.08-6.08,12.77,12.77,0,0,0,4.07.72.86.86,0,0,0-.4.21c-.12.12-2.86,2.79-2.86,6.2a6.92,6.92,0,0,0,.2,1.59,7.77,7.77,0,0,0-4.77-1.15.89.89,0,0,0-.63.31.87.87,0,0,0-.21.67c.25,2.88,2.22,8.21,7.87,8.62,0,.41.08.83.11,1.26s-.05,1.16-.05,1.75A16.93,16.93,0,0,0,39.87,52,17.91,17.91,0,0,0,32,47.42Zm9.14,18.43c0-.31,0-.63,0-1a16,16,0,0,1,1.06-6,.36.36,0,0,0,0-.09l0,.06s0,.08,0,.12a16.1,16.1,0,0,1,1,5.78v.17c0,.08,0,.17,0,.23,0,.24,0,.47-.06.7A18,18,0,0,1,41.11,65.85ZM52.36,47.42A17.85,17.85,0,0,0,44.46,52c-.47.48-.91,1-1.33,1.5,0-.59,0-1.18-.05-1.76s.06-.85.11-1.26c5.65-.41,7.63-5.74,7.88-8.62a.92.92,0,0,0-.22-.67.89.89,0,0,0-.62-.31A7.72,7.72,0,0,0,45.45,42a6.77,6.77,0,0,0,.2-1.58c0-3.41-2.74-6.08-2.86-6.2a.86.86,0,0,0-.4-.21,12.83,12.83,0,0,0,4.08-.72A12.45,12.45,0,0,0,49,36.88a12.69,12.69,0,0,0,3.56,2.52,13,13,0,0,0-.73,4.3A12.6,12.6,0,0,0,52.36,47.42Zm12.31,7.32a11,11,0,0,1-9.81-6,16,16,0,0,1,13.5,4.53l.55.61A11.09,11.09,0,0,1,64.67,54.74Z"/><path class="cls-1" d="M41.53,24.63a.9.9,0,0,0,.63.25.88.88,0,0,0,.63-.25c.12-.11,2.86-2.79,2.86-6.2s-2.74-6.08-2.86-6.19a.91.91,0,0,0-1.26,0c-.12.11-2.86,2.79-2.86,6.19S41.41,24.52,41.53,24.63Zm.63-10.35a7.16,7.16,0,0,1,1.67,4.15,7.16,7.16,0,0,1-1.67,4.16,7.16,7.16,0,0,1-1.67-4.16A7.16,7.16,0,0,1,42.16,14.28Z"/><path class="cls-1" d="M54.84,29.62a.91.91,0,0,0,.89.89h.07c.54,0,4.07-.09,6.34-2.36s2.36-6.23,2.35-6.4a.91.91,0,0,0-.89-.89c-.16,0-4-.05-6.4,2.36S54.84,29.46,54.84,29.62Zm3.65-5.11a7.13,7.13,0,0,1,4.11-1.76,7.12,7.12,0,0,1-1.75,4.11h0a7.16,7.16,0,0,1-4.12,1.76A7.06,7.06,0,0,1,58.49,24.51Z"/><path class="cls-1" d="M73.11,42.56c-.11-.12-2.79-2.86-6.19-2.86s-6.08,2.74-6.19,2.86a.91.91,0,0,0,0,1.26c.11.12,2.78,2.86,6.19,2.86s6.08-2.74,6.19-2.86A.91.91,0,0,0,73.11,42.56Zm-6.19,2.3a7.13,7.13,0,0,1-4.15-1.67,7.13,7.13,0,0,1,4.15-1.66,7.16,7.16,0,0,1,4.15,1.66A7.16,7.16,0,0,1,66.92,44.86Z"/><path class="cls-1" d="M55.73,55.87a.92.92,0,0,0-.89.9c0,.16-.05,4,2.36,6.4,2.26,2.27,5.79,2.35,6.33,2.35h.07a.91.91,0,0,0,.89-.89c0-.16.05-4-2.35-6.4S55.9,55.88,55.73,55.87Zm2.76,6h0a7.13,7.13,0,0,1-1.76-4.12,7.2,7.2,0,0,1,4.12,1.76,7.18,7.18,0,0,1,1.75,4.11A7.11,7.11,0,0,1,58.49,61.88Z"/><path class="cls-1" d="M28.59,55.87c-.17,0-4,0-6.4,2.36h0c-2.41,2.41-2.36,6.24-2.36,6.4a.91.91,0,0,0,.89.89h.07c.54,0,4.07-.09,6.33-2.35s2.36-6.24,2.36-6.4A.91.91,0,0,0,28.59,55.87Zm-2.76,6a7.08,7.08,0,0,1-4.11,1.75,7.13,7.13,0,0,1,1.76-4.11h0a7.14,7.14,0,0,1,4.11-1.76A7.13,7.13,0,0,1,25.83,61.88Z"/><path class="cls-1" d="M23.6,43.82a.91.91,0,0,0,0-1.26c-.12-.12-2.79-2.86-6.2-2.86s-6.08,2.74-6.19,2.86a.91.91,0,0,0,0,1.26c.11.12,2.79,2.86,6.19,2.86S23.48,43.94,23.6,43.82Zm-6.2-2.29a7.13,7.13,0,0,1,4.15,1.66,7.13,7.13,0,0,1-4.15,1.67,7.16,7.16,0,0,1-4.15-1.67A7.16,7.16,0,0,1,17.4,41.53Z"/><path class="cls-1" d="M28.52,30.51h.07a.91.91,0,0,0,.89-.89c0-.16.05-4-2.36-6.4s-6.24-2.36-6.4-2.36a.91.91,0,0,0-.89.89c0,.17,0,4,2.36,6.4C24.45,30.42,28,30.51,28.52,30.51Zm-2.69-6a7.13,7.13,0,0,1,1.76,4.11,7.08,7.08,0,0,1-4.11-1.76,7.08,7.08,0,0,1-1.76-4.11A7.1,7.1,0,0,1,25.83,24.51Z"/></svg>