<svg id="Layer_1" data-name="Layer 1" xmlns="http://www.w3.org/2000/svg" viewBox="0 0 150 150"><defs><style>.cls-1{fill:#4a71ff;}</style></defs><path class="cls-1" d="M30.12,107.88l-3.44,8.8H25.54l-3.45-8.8v8.8h-2.6V104.45h3.65l3,7.63,3-7.63h3.66v12.23H30.12Z"/><path class="cls-1" d="M39.11,107.61c2.64,0,4.44,2,4.44,4.87V113H37a2.39,2.39,0,0,0,2.55,2,3.62,3.62,0,0,0,2.36-.88l1,1.5a5.5,5.5,0,0,1-3.65,1.23,4.65,4.65,0,1,1-.15-9.29Zm-2.18,3.81H41.3a2.06,2.06,0,0,0-2.19-2A2.13,2.13,0,0,0,36.93,111.42Z"/><path class="cls-1" d="M56.21,111.09c0-.82-.36-1.41-1.32-1.41a2.35,2.35,0,0,0-1.83,1v6H50.71v-5.59c0-.82-.36-1.41-1.32-1.41a2.39,2.39,0,0,0-1.83,1v6H45.23v-8.85h2.33V109a3.89,3.89,0,0,1,2.9-1.37,2.33,2.33,0,0,1,2.45,1.61A3.76,3.76,0,0,1,56,107.61a2.36,2.36,0,0,1,2.6,2.67v6.4H56.21Z"/><path class="cls-1" d="M60.28,112.24A4.68,4.68,0,1,1,65,116.9,4.48,4.48,0,0,1,60.28,112.24Zm6.94,0A2.28,2.28,0,1,0,65,114.83,2.33,2.33,0,0,0,67.22,112.24Z"/><path class="cls-1" d="M71.36,107.83h2.33V109a3.77,3.77,0,0,1,2.82-1.41v2.27a2.7,2.7,0,0,0-.64-.07,3,3,0,0,0-2.18,1v5.85H71.36Z"/><path class="cls-1" d="M78.73,118.2a1.18,1.18,0,0,0,1.23-.64l.32-.75-3.59-9h2.5L81.5,114l2.3-6.16h2.52l-4.17,10.3a3.19,3.19,0,0,1-3.35,2.14,6.61,6.61,0,0,1-1.15-.12l.34-2.09A2.11,2.11,0,0,0,78.73,118.2Z"/><path class="cls-1" d="M92.1,104.45h2.6v9.94h5.17v2.29H92.1Z"/><path class="cls-1" d="M106.82,115.76A3.66,3.66,0,0,1,104,116.9a3,3,0,0,1-3.08-2.93,2.8,2.8,0,0,1,3.08-2.82,3.57,3.57,0,0,1,2.81,1.08V111c0-.9-.77-1.49-1.95-1.49a3.71,3.71,0,0,0-2.58,1l-.88-1.56a5.81,5.81,0,0,1,3.87-1.39c2,0,3.87.8,3.87,3.35v5.72h-2.33Zm0-2.31a2.34,2.34,0,0,0-1.87-.76c-.92,0-1.67.47-1.67,1.33s.75,1.3,1.67,1.3a2.34,2.34,0,0,0,1.87-.76Z"/><path class="cls-1" d="M117.43,111.33a1.44,1.44,0,0,0-1.64-1.65,2.51,2.51,0,0,0-2,1v6h-2.33v-8.85h2.33V109a4.05,4.05,0,0,1,3.1-1.37,2.57,2.57,0,0,1,2.87,2.82v6.25h-2.32Z"/><path class="cls-1" d="M126.07,107.61c2.64,0,4.44,2,4.44,4.87V113h-6.58a2.39,2.39,0,0,0,2.55,2,3.62,3.62,0,0,0,2.36-.88l1,1.5a5.5,5.5,0,0,1-3.65,1.23,4.65,4.65,0,1,1-.15-9.29Zm-2.18,3.81h4.37a2.06,2.06,0,0,0-2.19-2A2.13,2.13,0,0,0,123.89,111.42Z"/><path class="cls-1" d="M106.06,75.56a20.36,20.36,0,0,0-17.75-5.7,12.91,12.91,0,0,1,.11-8,14.69,14.69,0,0,0,14.81-3.64,25,25,0,0,0,3.06-4.44,1.05,1.05,0,0,0,0-.9,1,1,0,0,0-.67-.61,25.47,25.47,0,0,0-5.3-1,14.77,14.77,0,0,0-13.06,7.9,12.7,12.7,0,0,1-5.88-5.88,14.81,14.81,0,0,0,6.89-18.44,1.09,1.09,0,0,0-1.41-.58,15.14,15.14,0,0,0-4.51,3.08,14.72,14.72,0,0,0-3.64,14.83,12.81,12.81,0,0,1-8.34,0,14.73,14.73,0,0,0-3.65-14.83,25.4,25.4,0,0,0-4.44-3,1,1,0,0,0-1.47.53,14.73,14.73,0,0,0,6.88,18.44,12.14,12.14,0,0,1-2.44,3.44,12.51,12.51,0,0,1-3.43,2.44,14.77,14.77,0,0,0-13.06-7.9,25.47,25.47,0,0,0-5.3,1,1.07,1.07,0,0,0-.75,1,1,1,0,0,0,.09.42,15,15,0,0,0,3.08,4.51,14.71,14.71,0,0,0,14.82,3.64,12.48,12.48,0,0,1,.7,4.18,13,13,0,0,1-.58,3.81,20.35,20.35,0,0,0-17.74,5.69c-.46.44-1.55,1.7-1.67,1.84a1,1,0,0,0,.4,1.65c.18.07,4.39,1.73,7,1.73a14.63,14.63,0,0,0,13.36-8.5,18.15,18.15,0,0,1,11.11,8.39,10.52,10.52,0,0,1-.28,1l-.06.13c-.1.21-.18.43-.27.64l-.06.16,0,.08-.47.9.15.08a20.25,20.25,0,0,0-1,6.65c0,.31,0,.6,0,.89A26.07,26.07,0,0,1,65.77,90l-1-.34-.69,2,1,.35a29.21,29.21,0,0,0,6.44,1.42l0,.23,1-.14c.69.06,1.39.1,2.09.1s1.41,0,2.1-.09l.94.13,0-.23a28.91,28.91,0,0,0,6.42-1.42l1-.35-.69-2-1,.35a26.55,26.55,0,0,1-5.51,1.27c0-.21,0-.4,0-.6v-.19c0-.1,0-.2,0-.29a20,20,0,0,0-1-6.47l.15-.08-.48-.92c-.13-.33-.25-.67-.4-1v0a10.73,10.73,0,0,1-.28-1A18.29,18.29,0,0,1,87,72.27,14.79,14.79,0,0,0,107.39,79a1.07,1.07,0,0,0,.52-.72,1,1,0,0,0-.22-.86C107.51,77.21,106.59,76.09,106.06,75.56Zm-5.69-22.17a17.24,17.24,0,0,1,3.41.56,17.9,17.9,0,0,1-2,2.81A12.64,12.64,0,0,1,89.28,60,12.67,12.67,0,0,1,100.37,53.39Zm-53,3.37A13.22,13.22,0,0,1,45.3,54a18.17,18.17,0,0,1,3.51-.58A12.67,12.67,0,0,1,59.9,60,12.63,12.63,0,0,1,47.41,56.76Zm1.4,21.93a18.23,18.23,0,0,1-4.76-1.07l.54-.58a18.26,18.26,0,0,1,15.46-5.19A12.58,12.58,0,0,1,48.81,78.69ZM83.87,38.87a12.31,12.31,0,0,1,2.87-2.15,13.11,13.11,0,0,1,.49,3.55,12.67,12.67,0,0,1-6.55,11.08A12.64,12.64,0,0,1,83.87,38.87ZM76.48,69.94a7,7,0,0,1,6-5c-.45,2-1.9,6.19-6.43,6.78C76.21,71.05,76.34,70.46,76.48,69.94Zm-3.4,1.74c-4.5-.59-6-4.73-6.42-6.78a7,7,0,0,1,6,5C72.83,70.46,73,71.05,73.08,71.68Zm1.5-4.61a8.13,8.13,0,0,1-1.9-4.75,8.19,8.19,0,0,1,1.91-4.76,8.19,8.19,0,0,1,1.91,4.76A8.17,8.17,0,0,1,74.58,67.07ZM61.93,40.27a12.57,12.57,0,0,1,.48-3.46,18.24,18.24,0,0,1,2.89,2,12.62,12.62,0,0,1,3.19,12.49A12.67,12.67,0,0,1,61.93,40.27Zm1,30a14.84,14.84,0,0,0-.21-9.2,14.73,14.73,0,0,0,7-7,14.46,14.46,0,0,0,4.66.82,1.27,1.27,0,0,0-.46.24c-.13.13-3.27,3.2-3.27,7.1a7.91,7.91,0,0,0,.23,1.83,8.84,8.84,0,0,0-5.47-1.33,1,1,0,0,0-.72.36,1,1,0,0,0-.24.77c.29,3.29,2.55,9.4,9,9.86.06.48.1,1,.14,1.45-.05.66-.07,1.33-.07,2A18.84,18.84,0,0,0,72,75.56,20.31,20.31,0,0,0,62.91,70.31Zm10.48,21.1c0-.36-.06-.73-.06-1.11a18.31,18.31,0,0,1,1.21-6.88l0-.1s0,.05,0,.07l.06.14a18.28,18.28,0,0,1,1.18,6.62v.19c0,.1,0,.2,0,.27,0,.27,0,.53-.07.8A23.62,23.62,0,0,1,73.39,91.41Zm12.87-21.1a20.42,20.42,0,0,0-9.05,5.25c-.53.54-1,1.12-1.51,1.71,0-.67,0-1.35-.06-2,0-.49.07-1,.13-1.45,6.47-.46,8.73-6.57,9-9.86a1,1,0,0,0-.24-.77,1,1,0,0,0-.72-.36,8.87,8.87,0,0,0-5.47,1.33,7.84,7.84,0,0,0,.23-1.83c0-3.9-3.14-7-3.27-7.09a1,1,0,0,0-.46-.25,14.52,14.52,0,0,0,4.67-.82,14.77,14.77,0,0,0,7,7,15,15,0,0,0-.21,9.2Zm14.11,8.38a12.57,12.57,0,0,1-11.24-6.84A18.26,18.26,0,0,1,104.59,77c.15.16.38.41.62.69A12.59,12.59,0,0,1,100.37,78.69Z"/><path class="cls-1" d="M73.86,44.2a1.07,1.07,0,0,0,.73.29,1,1,0,0,0,.72-.29c.13-.13,3.27-3.19,3.27-7.09s-3.14-7-3.27-7.09a1,1,0,0,0-1.45,0c-.13.12-3.27,3.19-3.27,7.09S73.73,44.07,73.86,44.2Zm.73-11.85a8.19,8.19,0,0,1,1.91,4.76,8.23,8.23,0,0,1-1.92,4.76,8.16,8.16,0,0,1-1.9-4.76A8.19,8.19,0,0,1,74.59,32.35Z"/><path class="cls-1" d="M89.11,49.92a1,1,0,0,0,1,1h.08c.61,0,4.65-.1,7.25-2.7,2.76-2.76,2.7-7.14,2.7-7.33a1,1,0,0,0-1-1c-.2,0-4.57-.07-7.33,2.69S89.1,49.73,89.11,49.92Zm4.17-5.86a8.22,8.22,0,0,1,4.72-2,8.19,8.19,0,0,1-2,4.71,8.1,8.1,0,0,1-4.71,2A8.29,8.29,0,0,1,93.28,44.06Z"/><path class="cls-1" d="M110,64.74c-.13-.14-3.19-3.28-7.09-3.28s-7,3.14-7.09,3.28a1,1,0,0,0,0,1.44c.12.14,3.19,3.28,7.09,3.28s7-3.14,7.09-3.28A1,1,0,0,0,110,64.74Zm-7.09,2.63a8.19,8.19,0,0,1-4.76-1.91,8.19,8.19,0,0,1,4.76-1.91,8.16,8.16,0,0,1,4.75,1.91A8.16,8.16,0,0,1,102.94,67.37Z"/><path class="cls-1" d="M90.13,80a1,1,0,0,0-1,1c0,.19-.06,4.58,2.7,7.33h0c2.6,2.59,6.64,2.69,7.25,2.69h.08a1,1,0,0,0,1-1c0-.18.06-4.57-2.7-7.33S90.31,80,90.13,80Zm3.15,6.88h0a8.29,8.29,0,0,1-2-4.72A6.9,6.9,0,0,1,98,88.87,8.22,8.22,0,0,1,93.28,86.86Z"/><path class="cls-1" d="M59,80c-.18,0-4.57-.06-7.33,2.7h0C49,85.44,49,89.83,49,90a1,1,0,0,0,1,1h.07c.62,0,4.66-.1,7.26-2.7,2.75-2.75,2.7-7.14,2.7-7.33A1.05,1.05,0,0,0,59,80Zm-3.15,6.88a8.22,8.22,0,0,1-4.71,2,8.1,8.1,0,0,1,2-4.71,8.1,8.1,0,0,1,4.71-2A8.22,8.22,0,0,1,55.89,86.86Z"/><path class="cls-1" d="M53.33,66.18a1,1,0,0,0,0-1.44c-.13-.14-3.19-3.28-7.1-3.28s-7,3.14-7.09,3.28a1,1,0,0,0,0,1.44c.13.14,3.19,3.28,7.09,3.28S53.2,66.32,53.33,66.18Zm-7.1-2.63A8.19,8.19,0,0,1,51,65.46a8.19,8.19,0,0,1-4.76,1.91,8.19,8.19,0,0,1-4.75-1.91A8.19,8.19,0,0,1,46.23,63.55Z"/><path class="cls-1" d="M59,50.94H59a1.05,1.05,0,0,0,1-1c0-.19,0-4.58-2.7-7.33h0c-2.76-2.76-7.14-2.68-7.33-2.69a1,1,0,0,0-1,1c0,.19-.06,4.57,2.7,7.33C54.31,50.84,58.35,50.94,59,50.94Zm-3.08-6.88h0a8.22,8.22,0,0,1,2,4.71,8.1,8.1,0,0,1-4.71-2,8.1,8.1,0,0,1-2-4.71A8.22,8.22,0,0,1,55.89,44.06Z"/></svg>