<svg id="Layer_1" data-name="Layer 1" xmlns="http://www.w3.org/2000/svg" viewBox="0 0 101.23 101.23"><defs><style>.cls-1{fill:#4a71ff;}.cls-2{fill:#f2f2f2;}</style></defs><rect class="cls-1" x="16.7" y="16.64" width="67.82" height="67.95" rx="32.58"/><path class="cls-2" d="M70.78,57.91A13,13,0,0,0,59.35,54.3a8.47,8.47,0,0,1,.08-5.5A9.33,9.33,0,0,0,69,46.54a17.18,17.18,0,0,0,1.94-2.83.54.54,0,0,0,0-.45.49.49,0,0,0-.34-.3,15.61,15.61,0,0,0-3.36-.63,9.35,9.35,0,0,0-8.34,5.13,8.2,8.2,0,0,1-4.05-4.05,9.4,9.4,0,0,0,4.49-11.75.55.55,0,0,0-.71-.29,9.62,9.62,0,0,0-2.86,1.95,9.32,9.32,0,0,0-2.26,9.54,8.48,8.48,0,0,1-5.75,0,9.32,9.32,0,0,0-2.26-9.54,16.92,16.92,0,0,0-2.83-1.93.53.53,0,0,0-.74.27,9.56,9.56,0,0,0-.64,3.42,9.37,9.37,0,0,0,5.13,8.33,7.91,7.91,0,0,1-1.66,2.39,8.18,8.18,0,0,1-2.38,1.66A9.37,9.37,0,0,0,34,42.33a15.61,15.61,0,0,0-3.37.63.54.54,0,0,0-.34.72,9.75,9.75,0,0,0,1.95,2.86A9.32,9.32,0,0,0,41.8,48.8a8.47,8.47,0,0,1,.08,5.5,13,13,0,0,0-11.42,3.6c-.29.28-1.07,1.18-1.07,1.18a.51.51,0,0,0-.11.46.55.55,0,0,0,.31.37A16.45,16.45,0,0,0,34,61a9.28,9.28,0,0,0,8.51-5.5,11.84,11.84,0,0,1,7.4,5.55c-.06.26-.12.52-.2.76l0,.08c-.06.13-.12.27-.21.51,0,0,0,0,0,.05l-.24.46.08,0a13,13,0,0,0-.69,4.35c0,.27,0,.51,0,.75a16.85,16.85,0,0,1-3.77-.84l-.49-.17-.35,1,.49.18a18.58,18.58,0,0,0,4.23.92l0,.11.48-.06c.44,0,.9.06,1.35.06s.9,0,1.35-.06l.47.06,0-.11a18.61,18.61,0,0,0,4.22-.92l.49-.17-.34-1-.5.17a17.2,17.2,0,0,1-3.76.84c0-.18,0-.36,0-.55V67.2A13,13,0,0,0,51.93,63l.07,0-.23-.46c-.09-.21-.17-.43-.27-.63v0a5.47,5.47,0,0,1-.2-.75,12.06,12.06,0,0,1,1.85-2.41,11.87,11.87,0,0,1,5.55-3.14,9.35,9.35,0,0,0,13,4.38.54.54,0,0,0,.27-.36.52.52,0,0,0-.11-.43C71.57,58.8,71.06,58.19,70.78,57.91ZM67.22,43.38a12.13,12.13,0,0,1,2.42.41,12.72,12.72,0,0,1-1.42,2,8.28,8.28,0,0,1-8.36,2A8.29,8.29,0,0,1,67.22,43.38ZM33,45.8a8.43,8.43,0,0,1-1.48-2A12.46,12.46,0,0,1,34,43.38a8.29,8.29,0,0,1,7.35,4.46A8.28,8.28,0,0,1,33,45.8ZM34,60a12.14,12.14,0,0,1-3.33-.77c.19-.21.38-.43.5-.54a12,12,0,0,1,10.29-3.36A8.24,8.24,0,0,1,34,60ZM56.49,34.07a8.65,8.65,0,0,1,2-1.5,8.37,8.37,0,0,1-4.08,9.86A8.28,8.28,0,0,1,56.49,34.07Zm-14.17,1a8.52,8.52,0,0,1,.36-2.46,12.63,12.63,0,0,1,2.06,1.44,8.3,8.3,0,0,1,2,8.37A8.31,8.31,0,0,1,42.32,35.08Zm7.51,20.39c-3.31-.3-4.26-3.4-4.51-4.69a4.66,4.66,0,0,1,4.22,3.37C49.64,54.54,49.74,55,49.83,55.47Zm1.86-1.32a4.66,4.66,0,0,1,4.22-3.37c-.26,1.29-1.2,4.39-4.51,4.69C51.49,55,51.59,54.54,51.69,54.15Zm-1.08-1.58a5.55,5.55,0,0,1-1.37-3.3A5.58,5.58,0,0,1,50.61,46,5.58,5.58,0,0,1,52,49.27,5.55,5.55,0,0,1,50.61,52.57Zm-.06,1.31h.12c0,.08,0,.18-.06.27C50.59,54.06,50.57,54,50.55,53.88Zm-.83,14.27c0-.28-.06-.55-.07-.86a12.11,12.11,0,0,1,.84-4.6l.12-.29c.07.16.14.32.2.48a12,12,0,0,1,.77,4.32v.3c0,.21,0,.43-.06.65A13.37,13.37,0,0,1,49.72,68.15Zm8.6-13.63a13,13,0,0,0-5.91,3.39,15.91,15.91,0,0,0-1.25,1.47,15.14,15.14,0,0,0,0-1.65c0-.4.06-.8.11-1.19,5.21-.28,5.79-6.17,5.79-6.23a.51.51,0,0,0-.12-.38.5.5,0,0,0-.36-.18,5.47,5.47,0,0,0-3.77,1.07A5.19,5.19,0,0,0,53,49.27,7,7,0,0,0,51,44.82a.52.52,0,0,0-.73,0,7,7,0,0,0-2.06,4.45,5.19,5.19,0,0,0,.26,1.55,5.48,5.48,0,0,0-3.77-1.07.5.5,0,0,0-.36.18.47.47,0,0,0-.12.38c0,.06.58,5.95,5.78,6.23.05.39.09.79.11,1.2s-.05,1.09,0,1.64a12.52,12.52,0,0,0-1.24-1.47,13,13,0,0,0-5.91-3.39,9.41,9.41,0,0,0,.44-2.84,9.22,9.22,0,0,0-.58-3.26,9.27,9.27,0,0,0,4.59-4.59,9.46,9.46,0,0,0,6.51,0,9.27,9.27,0,0,0,4.59,4.59,9.22,9.22,0,0,0-.58,3.26A9.41,9.41,0,0,0,58.32,54.52ZM67.22,60a8.25,8.25,0,0,1-7.47-4.67A12,12,0,0,1,70,58.65c.14.14.35.38.54.61A8.32,8.32,0,0,1,67.22,60Z"/><path class="cls-2" d="M50.61,37.65A.55.55,0,0,0,51,37.5,7,7,0,0,0,53,33,7,7,0,0,0,51,28.58a.54.54,0,0,0-.73,0A7,7,0,0,0,48.19,33a7,7,0,0,0,2.06,4.46A.51.51,0,0,0,50.61,37.65Zm0-7.91A5.55,5.55,0,0,1,52,33a5.55,5.55,0,0,1-1.38,3.3A5.49,5.49,0,0,1,49.24,33,5.55,5.55,0,0,1,50.61,29.74Z"/><path class="cls-2" d="M60.63,41.8h0a7,7,0,0,0,4.57-1.7,6.92,6.92,0,0,0,1.69-4.61.51.51,0,0,0-.51-.51,7,7,0,0,0-4.61,1.69,7,7,0,0,0-1.7,4.61A.54.54,0,0,0,60.63,41.8Zm1.92-4.39a5.59,5.59,0,0,1,3.31-1.36,5.59,5.59,0,0,1-1.36,3.31,5.46,5.46,0,0,1-3.31,1.36A5.49,5.49,0,0,1,62.55,37.41Z"/><path class="cls-2" d="M73.33,50.94a6.94,6.94,0,0,0-4.46-2.07,6.94,6.94,0,0,0-4.46,2.07.53.53,0,0,0,0,.72,7,7,0,0,0,4.46,2.06,7,7,0,0,0,4.46-2.06A.53.53,0,0,0,73.33,50.94Zm-4.46,1.74a5.55,5.55,0,0,1-3.3-1.38,5.55,5.55,0,0,1,3.3-1.38,5.55,5.55,0,0,1,3.3,1.38A5.55,5.55,0,0,1,68.87,52.68Z"/><path class="cls-2" d="M60.63,60.8a.53.53,0,0,0-.52.51,7,7,0,0,0,1.7,4.61,6.94,6.94,0,0,0,4.56,1.7h0a.52.52,0,0,0,.51-.52,7,7,0,0,0-1.69-4.61A7,7,0,0,0,60.63,60.8Zm1.92,4.38a5.59,5.59,0,0,1-1.36-3.3,5.5,5.5,0,0,1,3.31,1.35,5.61,5.61,0,0,1,1.36,3.31A5.59,5.59,0,0,1,62.55,65.18Z"/><path class="cls-2" d="M40.6,60.8A7,7,0,0,0,36,62.49a7,7,0,0,0-1.7,4.61.54.54,0,0,0,.52.52h0a7,7,0,0,0,4.57-1.7,6.92,6.92,0,0,0,1.69-4.61A.52.52,0,0,0,40.6,60.8Zm-1.92,4.38a5.52,5.52,0,0,1-3.31,1.36,5.49,5.49,0,0,1,1.36-3.31A5.5,5.5,0,0,1,40,61.88,5.52,5.52,0,0,1,38.68,65.18Z"/><path class="cls-2" d="M36.82,51.66a.53.53,0,0,0,0-.72,7,7,0,0,0-4.46-2.07,6.94,6.94,0,0,0-4.46,2.07.51.51,0,0,0,0,.72,7,7,0,0,0,4.46,2.06A7,7,0,0,0,36.82,51.66Zm-4.46-1.74a5.58,5.58,0,0,1,3.3,1.38,5.58,5.58,0,0,1-3.3,1.38,5.55,5.55,0,0,1-3.3-1.38A5.55,5.55,0,0,1,32.36,49.92Z"/><path class="cls-2" d="M40.55,41.8h.05a.52.52,0,0,0,.51-.52,7,7,0,0,0-1.69-4.61A7,7,0,0,0,34.81,35a.53.53,0,0,0-.52.51A7,7,0,0,0,36,40.1,6.94,6.94,0,0,0,40.55,41.8Zm-1.87-4.39A5.61,5.61,0,0,1,40,40.72a5.52,5.52,0,0,1-3.31-1.36,5.59,5.59,0,0,1-1.36-3.31A5.61,5.61,0,0,1,38.68,37.41Z"/></svg>