<svg id="Layer_1" data-name="Layer 1" xmlns="http://www.w3.org/2000/svg" viewBox="0 0 184.62 59.15"><defs><style>.cls-1{fill:#4a71ff;}.cls-2{fill:#f2f2f2;}</style></defs><path class="cls-1" d="M77.67,25.73,74.1,34.85H72.92l-3.57-9.12v9.12h-2.7V22.18h3.78l3.08,7.9,3.07-7.9h3.8V34.85H77.67Z"/><path class="cls-1" d="M87,25.44c2.73,0,4.59,2,4.59,5.06V31H84.77a2.48,2.48,0,0,0,2.64,2.13,3.78,3.78,0,0,0,2.46-.92l1.06,1.56a5.7,5.7,0,0,1-3.78,1.27,4.65,4.65,0,0,1-4.9-4.82A4.67,4.67,0,0,1,87,25.44Zm-2.26,3.95h4.52a2.13,2.13,0,0,0-2.26-2A2.2,2.2,0,0,0,84.74,29.39Z"/><path class="cls-1" d="M104.72,29.05c0-.85-.38-1.46-1.37-1.46a2.47,2.47,0,0,0-1.9,1.06v6.2H99v-5.8c0-.85-.38-1.46-1.36-1.46a2.46,2.46,0,0,0-1.9,1.08v6.18H93.34V25.67h2.42v1.2a4,4,0,0,1,3-1.43,2.42,2.42,0,0,1,2.54,1.67,3.91,3.91,0,0,1,3.16-1.67,2.45,2.45,0,0,1,2.69,2.78v6.63h-2.43Z"/><path class="cls-1" d="M108.94,30.25a4.86,4.86,0,0,1,9.71,0,4.86,4.86,0,0,1-9.71,0Zm7.2,0a2.36,2.36,0,1,0-4.69,0,2.37,2.37,0,1,0,4.69,0Z"/><path class="cls-1" d="M120.44,25.67h2.41v1.25a4,4,0,0,1,2.93-1.46v2.36a3,3,0,0,0-.67-.08,3.07,3.07,0,0,0-2.26,1.05v6.06h-2.41Z"/><path class="cls-1" d="M128.08,36.42a1.22,1.22,0,0,0,1.27-.66l.34-.78L126,25.67h2.58l2.39,6.38,2.4-6.38h2.6l-4.31,10.68a3.34,3.34,0,0,1-3.48,2.22,7.33,7.33,0,0,1-1.2-.13l.36-2.17A2,2,0,0,0,128.08,36.42Z"/><path class="cls-1" d="M141.94,22.18h2.7V32.47H150v2.38h-8.06Z"/><path class="cls-1" d="M157.2,33.9a3.8,3.8,0,0,1-2.91,1.17,3.05,3.05,0,0,1-3.19-3,2.91,2.91,0,0,1,3.19-2.92,3.72,3.72,0,0,1,2.91,1.12V29c0-.93-.8-1.54-2-1.54a3.87,3.87,0,0,0-2.68,1.08l-.91-1.61a6,6,0,0,1,4-1.45c2.09,0,4,.84,4,3.48v5.93H157.2Zm0-2.4a2.43,2.43,0,0,0-1.94-.8c-.95,0-1.73.5-1.73,1.39s.78,1.35,1.73,1.35a2.43,2.43,0,0,0,1.94-.8Z"/><path class="cls-1" d="M168.2,29.3a1.49,1.49,0,0,0-1.69-1.71,2.62,2.62,0,0,0-2.09,1.08v6.18H162V25.67h2.41v1.2a4.18,4.18,0,0,1,3.21-1.43,2.67,2.67,0,0,1,3,2.93v6.48H168.2Z"/><path class="cls-1" d="M177.17,25.44c2.74,0,4.6,2,4.6,5.06V31H175a2.47,2.47,0,0,0,2.64,2.13,3.77,3.77,0,0,0,2.45-.92l1.06,1.56a5.68,5.68,0,0,1-3.78,1.27,4.65,4.65,0,0,1-4.9-4.82A4.67,4.67,0,0,1,177.17,25.44Zm-2.26,3.95h4.52a2.12,2.12,0,0,0-2.26-2A2.2,2.2,0,0,0,174.91,29.39Z"/><rect class="cls-1" x="2.3" y="1.36" width="56.33" height="56.43" rx="27.06"/><path class="cls-2" d="M47.21,35.63a10.79,10.79,0,0,0-9.49-3,7,7,0,0,1-.35-2.18,7.1,7.1,0,0,1,.42-2.38,7.74,7.74,0,0,0,7.91-1.88,12.83,12.83,0,0,0,1.61-2.35.4.4,0,0,0,0-.37.43.43,0,0,0-.28-.26,13.49,13.49,0,0,0-2.8-.52A7.76,7.76,0,0,0,37.33,27a6.71,6.71,0,0,1-2-1.39,6.55,6.55,0,0,1-1.38-2,7.82,7.82,0,0,0,3.73-9.76.47.47,0,0,0-.59-.24,8,8,0,0,0-2.38,1.62,7.75,7.75,0,0,0-1.87,7.92,7,7,0,0,1-4.78,0,7.74,7.74,0,0,0-1.88-7.92,14,14,0,0,0-2.35-1.6.43.43,0,0,0-.35,0,.49.49,0,0,0-.26.25,7.9,7.9,0,0,0-.53,2.84A7.77,7.77,0,0,0,27,23.59a6.55,6.55,0,0,1-1.38,2,6.71,6.71,0,0,1-2,1.39,7.77,7.77,0,0,0-6.93-4.27,13.5,13.5,0,0,0-2.79.52.46.46,0,0,0-.32.43.39.39,0,0,0,0,.18,8.06,8.06,0,0,0,1.62,2.37,7.77,7.77,0,0,0,7.92,1.88,7.1,7.1,0,0,1,.42,2.38,6.69,6.69,0,0,1-.36,2.18,10.77,10.77,0,0,0-9.48,3c-.24.23-.89,1-.89,1a.45.45,0,0,0-.09.39.42.42,0,0,0,.26.3,13.31,13.31,0,0,0,3.67.92,7.71,7.71,0,0,0,7.08-4.57,9.83,9.83,0,0,1,4.6,2.61,10.13,10.13,0,0,1,1.54,2,5.79,5.79,0,0,1-.17.63l0,.06c-.05.11-.1.23-.17.43l0,0-.2.39.06,0a10.66,10.66,0,0,0-.57,3.61c0,.22,0,.42.05.63a14.14,14.14,0,0,1-3.14-.71l-.41-.14L25,44l.41.14a15,15,0,0,0,3.51.77V45l.4,0c.37,0,.75,0,1.12,0s.75,0,1.12,0l.4,0V45a15.51,15.51,0,0,0,3.5-.76l.41-.15-.28-.82-.41.14a13.93,13.93,0,0,1-3.13.71c0-.16,0-.31,0-.46v-.26a10.57,10.57,0,0,0-.58-3.52l.06,0-.2-.39a4,4,0,0,0-.21-.52v0a3.74,3.74,0,0,1-.16-.62,9.61,9.61,0,0,1,1.54-2,9.78,9.78,0,0,1,4.6-2.61A7.77,7.77,0,0,0,48,37.28a.48.48,0,0,0,.22-.3.46.46,0,0,0-.09-.36C47.87,36.37,47.45,35.87,47.21,35.63Zm-3-12.07a10.16,10.16,0,0,1,2,.34,9.79,9.79,0,0,1-1.18,1.67,6.88,6.88,0,0,1-6.94,1.7A6.88,6.88,0,0,1,44.25,23.56Zm-28.4,2a7,7,0,0,1-1.23-1.66,9.89,9.89,0,0,1,2.06-.36,6.89,6.89,0,0,1,6.11,3.71A6.89,6.89,0,0,1,15.85,25.58Zm.83,11.76a10.46,10.46,0,0,1-2.76-.64c.16-.18.32-.36.42-.45a9.89,9.89,0,0,1,8.54-2.79A6.85,6.85,0,0,1,16.68,37.34ZM35.35,15.83A6.94,6.94,0,0,1,37,14.59a6.94,6.94,0,0,1-3.39,8.19A6.89,6.89,0,0,1,35.35,15.83Zm-11.77.84a7,7,0,0,1,.3-2,10.47,10.47,0,0,1,1.71,1.2,6.86,6.86,0,0,1,1.69,7A6.92,6.92,0,0,1,23.58,16.67Zm6.23,16.94c-2.74-.25-3.53-2.82-3.74-3.9a3.88,3.88,0,0,1,3.51,2.8C29.66,32.83,29.74,33.21,29.81,33.61Zm1.55-1.1a3.87,3.87,0,0,1,3.5-2.8c-.2,1.08-1,3.65-3.74,3.9C31.19,33.21,31.28,32.83,31.36,32.51Zm-.89-1.31a4.56,4.56,0,0,1-1.15-2.74,4.56,4.56,0,0,1,1.15-2.74,4.61,4.61,0,0,1,1.14,2.74A4.61,4.61,0,0,1,30.47,31.2Zm0,1.09v0h.11v0a1.42,1.42,0,0,0-.05.22A2.25,2.25,0,0,1,30.42,32.29Zm-.69,11.85a5.51,5.51,0,0,1-.06-.71,10,10,0,0,1,.7-3.83,2.44,2.44,0,0,1,.1-.24c.06.13.11.27.16.4a10,10,0,0,1,.64,3.59v.25a5.16,5.16,0,0,1-.05.54A12.18,12.18,0,0,1,29.73,44.14Zm7.14-11.32A10.78,10.78,0,0,0,32,35.63a11.09,11.09,0,0,0-1,1.23,12.49,12.49,0,0,0,0-1.37c0-.34.05-.67.09-1,4.33-.22,4.8-5.12,4.81-5.17a.47.47,0,0,0-.1-.32.51.51,0,0,0-.3-.15,4.56,4.56,0,0,0-3.14.9,4.15,4.15,0,0,0,.22-1.29,5.78,5.78,0,0,0-1.71-3.7.43.43,0,0,0-.6,0,5.77,5.77,0,0,0-1.72,3.7,4.15,4.15,0,0,0,.22,1.29,4.55,4.55,0,0,0-3.13-.9.48.48,0,0,0-.3.15.42.42,0,0,0-.1.32c0,.05.48,5,4.81,5.17,0,.33.06.66.09,1a12.35,12.35,0,0,0,0,1.36,12.07,12.07,0,0,0-1-1.22,10.83,10.83,0,0,0-4.91-2.81,7.93,7.93,0,0,0,.37-2.37,7.72,7.72,0,0,0-.48-2.7,7.47,7.47,0,0,0,2.24-1.56,7.68,7.68,0,0,0,1.57-2.25,7.83,7.83,0,0,0,5.4,0A7.68,7.68,0,0,0,37,27.75a7.72,7.72,0,0,0-.48,2.7A7.62,7.62,0,0,0,36.87,32.82Zm7.38,4.52a6.84,6.84,0,0,1-6.19-3.88,9.89,9.89,0,0,1,8.54,2.79c.12.12.29.31.45.5A6.79,6.79,0,0,1,44.25,37.34Z"/><path class="cls-2" d="M30.47,18.8a.44.44,0,0,0,.3-.12A5.78,5.78,0,0,0,32.48,15a5.74,5.74,0,0,0-1.71-3.7.42.42,0,0,0-.6,0A5.73,5.73,0,0,0,28.45,15a5.77,5.77,0,0,0,1.72,3.7A.42.42,0,0,0,30.47,18.8Zm0-6.56A4.61,4.61,0,0,1,31.61,15a4.61,4.61,0,0,1-1.14,2.74A4.56,4.56,0,0,1,29.32,15,4.56,4.56,0,0,1,30.47,12.24Z"/><path class="cls-2" d="M38.78,22.25h0a5.74,5.74,0,0,0,3.79-1.4A5.82,5.82,0,0,0,44,17a.43.43,0,0,0-.43-.43A5.75,5.75,0,0,0,39.76,18a5.82,5.82,0,0,0-1.4,3.83A.42.42,0,0,0,38.78,22.25Zm1.6-3.64a4.66,4.66,0,0,1,2.75-1.13A4.66,4.66,0,0,1,42,20.23a4.68,4.68,0,0,1-2.75,1.13A4.58,4.58,0,0,1,40.38,18.61Z"/><path class="cls-2" d="M49.33,29.84a5.78,5.78,0,0,0-3.7-1.71,5.78,5.78,0,0,0-3.7,1.71.43.43,0,0,0,0,.6,5.77,5.77,0,0,0,3.7,1.72,5.77,5.77,0,0,0,3.7-1.72A.44.44,0,0,0,49.33,29.84Zm-3.7,1.45a4.56,4.56,0,0,1-2.74-1.15A4.61,4.61,0,0,1,45.63,29a4.61,4.61,0,0,1,2.74,1.14A4.56,4.56,0,0,1,45.63,31.29Z"/><path class="cls-2" d="M38.78,38a.43.43,0,0,0-.42.43,5.84,5.84,0,0,0,1.4,3.83,5.79,5.79,0,0,0,3.8,1.4h0a.42.42,0,0,0,.43-.42,5.8,5.8,0,0,0-1.41-3.83A5.78,5.78,0,0,0,38.78,38Zm1.6,3.64a4.66,4.66,0,0,1-1.13-2.74A4.6,4.6,0,0,1,42,40.05a4.7,4.7,0,0,1,1.13,2.75A4.55,4.55,0,0,1,40.38,41.67Z"/><path class="cls-2" d="M22.15,38a5.88,5.88,0,0,0-3.83,1.41,5.8,5.8,0,0,0-1.41,3.83.44.44,0,0,0,.43.42h0a5.75,5.75,0,0,0,3.79-1.4,5.82,5.82,0,0,0,1.41-3.83A.44.44,0,0,0,22.15,38Zm-1.59,3.64a4.64,4.64,0,0,1-2.75,1.13,4.58,4.58,0,0,1,1.13-2.75,4.57,4.57,0,0,1,2.75-1.12A4.66,4.66,0,0,1,20.56,41.67Z"/><path class="cls-2" d="M19,30.44a.44.44,0,0,0,0-.6,5.81,5.81,0,0,0-3.7-1.71,5.81,5.81,0,0,0-3.71,1.71.43.43,0,0,0,0,.6,5.8,5.8,0,0,0,3.71,1.72A5.8,5.8,0,0,0,19,30.44ZM15.31,29a4.67,4.67,0,0,1,2.74,1.14,4.61,4.61,0,0,1-2.74,1.15,4.56,4.56,0,0,1-2.74-1.15A4.61,4.61,0,0,1,15.31,29Z"/><path class="cls-2" d="M22.11,22.25h0a.43.43,0,0,0,.43-.42A5.79,5.79,0,0,0,21.17,18a5.73,5.73,0,0,0-3.83-1.41.44.44,0,0,0-.43.43,5.82,5.82,0,0,0,1.41,3.83A5.77,5.77,0,0,0,22.11,22.25Zm-1.55-3.64a4.57,4.57,0,0,1,1.12,2.75,4.66,4.66,0,0,1-2.74-1.13,4.53,4.53,0,0,1-1.13-2.75A4.7,4.7,0,0,1,20.56,18.61Z"/></svg>