<svg id="Layer_1" data-name="Layer 1" xmlns="http://www.w3.org/2000/svg" viewBox="0 0 61.61 61.61"><defs><style>.cls-1{fill:#f2f7fb;}.cls-2{fill:#4a71ff;}</style></defs><rect class="cls-1" x="0.19" y="0.42" width="60.27" height="60.38" rx="28.95"/><path class="cls-2" d="M50.86,37.85a13.24,13.24,0,0,0-11.68-3.69,8.47,8.47,0,0,1-.44-2.69,8.57,8.57,0,0,1,.52-2.93A9.54,9.54,0,0,0,49,26.22a16.64,16.64,0,0,0,2-2.89.53.53,0,0,0,0-.46.57.57,0,0,0-.35-.31,16.91,16.91,0,0,0-3.44-.64,9.57,9.57,0,0,0-8.53,5.25,8.41,8.41,0,0,1-2.43-1.7A8,8,0,0,1,34.56,23a9.62,9.62,0,0,0,4.59-12,.56.56,0,0,0-.73-.3,9.68,9.68,0,0,0-2.92,2,9.53,9.53,0,0,0-2.31,9.74,8.61,8.61,0,0,1-5.88,0A9.55,9.55,0,0,0,25,12.71a17.86,17.86,0,0,0-2.89-2,.56.56,0,0,0-.44,0,.52.52,0,0,0-.32.31,9.69,9.69,0,0,0-.65,3.49A9.58,9.58,0,0,0,25.94,23a8,8,0,0,1-1.7,2.44,8.41,8.41,0,0,1-2.43,1.7,9.57,9.57,0,0,0-8.53-5.25,16.91,16.91,0,0,0-3.44.64.56.56,0,0,0-.39.53.54.54,0,0,0,.05.21,9.83,9.83,0,0,0,2,2.92,9.55,9.55,0,0,0,9.75,2.32,8.56,8.56,0,0,1,.51,2.93,8.46,8.46,0,0,1-.43,2.69A13.21,13.21,0,0,0,9.65,37.84c-.3.29-1.09,1.2-1.09,1.2a.53.53,0,0,0-.12.48.54.54,0,0,0,.32.37A16.74,16.74,0,0,0,13.28,41,9.5,9.5,0,0,0,22,35.39a12.2,12.2,0,0,1,5.67,3.21,12.67,12.67,0,0,1,1.89,2.46,5.53,5.53,0,0,1-.21.78l0,.08c-.07.14-.12.28-.22.53l0,0-.24.47.07,0a13.29,13.29,0,0,0-.7,4.45c0,.27,0,.51.06.77a17.42,17.42,0,0,1-3.86-.87l-.51-.18-.35,1,.5.18a18.3,18.3,0,0,0,4.33.94v.12l.49-.07c.46,0,.92.07,1.38.07s.93,0,1.38-.07l.49.07v-.12a18.14,18.14,0,0,0,4.31-.94L37,48.2l-.35-1-.51.17a17.38,17.38,0,0,1-3.84.87c0-.19,0-.38,0-.57v-.32A13.31,13.31,0,0,0,31.6,43l.07,0-.24-.47c-.09-.22-.17-.44-.27-.64v0a6.36,6.36,0,0,1-.2-.78,12.49,12.49,0,0,1,1.89-2.46,12.2,12.2,0,0,1,5.67-3.21,9.55,9.55,0,0,0,13.25,4.48.54.54,0,0,0,.16-.81C51.67,38.75,51.15,38.13,50.86,37.85ZM47.22,23a12.74,12.74,0,0,1,2.48.42,12.31,12.31,0,0,1-1.46,2.06,8.46,8.46,0,0,1-8.54,2.08A8.49,8.49,0,0,1,47.22,23Zm-35,2.48a8.73,8.73,0,0,1-1.5-2A12.19,12.19,0,0,1,13.28,23a8.49,8.49,0,0,1,7.52,4.56A8.45,8.45,0,0,1,12.25,25.47Zm1,14.48a12.66,12.66,0,0,1-3.4-.79c.19-.22.4-.44.52-.56a12.18,12.18,0,0,1,10.51-3.43A8.43,8.43,0,0,1,13.28,40Zm23-26.47A8.32,8.32,0,0,1,38.34,12a8.67,8.67,0,0,1,.38,2.56A8.53,8.53,0,0,1,34.17,22,8.48,8.48,0,0,1,36.25,13.48Zm-14.48,1A8.47,8.47,0,0,1,22.14,12a12.13,12.13,0,0,1,2.1,1.47A8.49,8.49,0,0,1,26.33,22,8.52,8.52,0,0,1,21.77,14.51Zm7.67,20.85c-3.38-.31-4.34-3.48-4.6-4.8A4.77,4.77,0,0,1,29.15,34C29.26,34.4,29.35,34.86,29.44,35.36ZM31.35,34a4.74,4.74,0,0,1,4.31-3.44c-.26,1.32-1.21,4.49-4.61,4.8C31.14,34.86,31.24,34.4,31.35,34Zm-1.1-1.61A5.67,5.67,0,0,1,28.84,29a5.67,5.67,0,0,1,1.41-3.37A5.67,5.67,0,0,1,31.66,29,5.67,5.67,0,0,1,30.25,32.39Zm-.06,1.34v0l.07,0,.07,0v0l-.06.27Zm-.86,14.58c0-.28-.06-.56-.06-.87a12.12,12.12,0,0,1,.86-4.71,3.11,3.11,0,0,1,.12-.3l.2.5a12.28,12.28,0,0,1,.78,4.41v.31c0,.22,0,.44,0,.66A14.12,14.12,0,0,1,29.33,48.31Zm8.8-13.93a13.27,13.27,0,0,0-6,3.47,12.21,12.21,0,0,0-1.28,1.5c0-.56,0-1.12,0-1.68s.06-.83.11-1.23c5.32-.28,5.91-6.3,5.92-6.36a.55.55,0,0,0-.49-.58,5.62,5.62,0,0,0-3.86,1.1A5.08,5.08,0,0,0,32.73,29a7.17,7.17,0,0,0-2.11-4.56.53.53,0,0,0-.74,0A7.12,7.12,0,0,0,27.77,29,5.08,5.08,0,0,0,28,30.6a5.63,5.63,0,0,0-3.86-1.1.56.56,0,0,0-.37.19.55.55,0,0,0-.12.39c0,.06.59,6.08,5.91,6.36q.07.6.12,1.23a15.64,15.64,0,0,0,0,1.68,12.13,12.13,0,0,0-1.27-1.5,13.27,13.27,0,0,0-6-3.47,9.51,9.51,0,0,0,.45-2.91,9.29,9.29,0,0,0-.59-3.32A9.35,9.35,0,0,0,25,26.22a9.15,9.15,0,0,0,1.92-2.76,9.74,9.74,0,0,0,6.65,0,9.36,9.36,0,0,0,1.93,2.76,9.22,9.22,0,0,0,2.77,1.93,9.3,9.3,0,0,0-.6,3.32A9.52,9.52,0,0,0,38.13,34.38ZM47.22,40a8.43,8.43,0,0,1-7.63-4.78A12.18,12.18,0,0,1,50.1,38.6c.15.15.36.39.56.62A8.39,8.39,0,0,1,47.22,40Z"/><path class="cls-2" d="M30.25,17.13a.54.54,0,0,0,.37-.14,7.21,7.21,0,0,0,2.11-4.56,7.14,7.14,0,0,0-2.11-4.56.53.53,0,0,0-.74,0,7.09,7.09,0,0,0-2.11,4.56A7.15,7.15,0,0,0,29.88,17,.5.5,0,0,0,30.25,17.13Zm0-8.08a5.73,5.73,0,0,1,1.41,3.38,5.67,5.67,0,0,1-1.41,3.37,5.67,5.67,0,0,1-1.41-3.37A5.73,5.73,0,0,1,30.25,9.05Z"/><path class="cls-2" d="M40.48,21.38h.05a7.13,7.13,0,0,0,4.67-1.73,7.17,7.17,0,0,0,1.73-4.72.54.54,0,0,0-.53-.52,7.07,7.07,0,0,0-4.71,1.73A7.13,7.13,0,0,0,40,20.85.54.54,0,0,0,40.48,21.38Zm2-4.48a5.63,5.63,0,0,1,3.38-1.39,5.7,5.7,0,0,1-1.39,3.38,5.72,5.72,0,0,1-3.38,1.39A5.59,5.59,0,0,1,42.45,16.9Z"/><path class="cls-2" d="M53.47,30.72a7.15,7.15,0,0,0-4.56-2.11,7.12,7.12,0,0,0-4.56,2.11.53.53,0,0,0,0,.74,7.12,7.12,0,0,0,4.56,2.11,7.15,7.15,0,0,0,4.56-2.11A.53.53,0,0,0,53.47,30.72ZM48.91,32.5a5.67,5.67,0,0,1-3.37-1.41,5.67,5.67,0,0,1,3.37-1.41,5.67,5.67,0,0,1,3.37,1.41A5.67,5.67,0,0,1,48.91,32.5Z"/><path class="cls-2" d="M40.48,40.8a.54.54,0,0,0-.52.52A7.15,7.15,0,0,0,41.69,46a7.07,7.07,0,0,0,4.67,1.73h0a.55.55,0,0,0,.53-.52,7.15,7.15,0,0,0-1.73-4.72A7.14,7.14,0,0,0,40.48,40.8Zm2,4.48a5.63,5.63,0,0,1-1.39-3.38,5.63,5.63,0,0,1,3.38,1.39,5.63,5.63,0,0,1,1.39,3.38A5.66,5.66,0,0,1,42.45,45.28Z"/><path class="cls-2" d="M20,40.8a7.21,7.21,0,0,0-4.71,1.73,7.09,7.09,0,0,0-1.73,4.72.53.53,0,0,0,.52.52h.05A7.08,7.08,0,0,0,18.81,46a7.15,7.15,0,0,0,1.73-4.72A.55.55,0,0,0,20,40.8Zm-2,4.48a5.72,5.72,0,0,1-3.38,1.39,5.63,5.63,0,0,1,1.39-3.38,5.63,5.63,0,0,1,3.38-1.39A5.68,5.68,0,0,1,18.05,45.28Z"/><path class="cls-2" d="M16.14,31.46a.53.53,0,0,0,0-.74,7.08,7.08,0,0,0-4.55-2.11A7.09,7.09,0,0,0,7,30.72a.53.53,0,0,0,0,.74,7.09,7.09,0,0,0,4.56,2.11A7.08,7.08,0,0,0,16.14,31.46Zm-4.55-1.78A5.7,5.7,0,0,1,15,31.09a5.7,5.7,0,0,1-3.37,1.41,5.73,5.73,0,0,1-3.38-1.41A5.73,5.73,0,0,1,11.59,29.68Z"/><path class="cls-2" d="M20,21.38h0a.55.55,0,0,0,.53-.53,7.13,7.13,0,0,0-1.73-4.71,7.08,7.08,0,0,0-4.72-1.73.52.52,0,0,0-.52.52,7.09,7.09,0,0,0,1.73,4.72A7.13,7.13,0,0,0,20,21.38ZM18.05,16.9a5.7,5.7,0,0,1,1.39,3.38,5.7,5.7,0,0,1-3.38-1.39,5.63,5.63,0,0,1-1.39-3.38A5.68,5.68,0,0,1,18.05,16.9Z"/></svg>