<svg id="Layer_1" data-name="Layer 1" xmlns="http://www.w3.org/2000/svg" viewBox="0 0 101.23 101.23"><defs><style>.cls-1{fill:#4a71ff;}</style></defs><path class="cls-1" d="M82.09,64.52a20.36,20.36,0,0,0-17.75-5.7,12.72,12.72,0,0,1,.11-8,14.71,14.71,0,0,0,14.81-3.64,25.92,25.92,0,0,0,3.06-4.44,1,1,0,0,0-.63-1.51,25.47,25.47,0,0,0-5.3-1,14.77,14.77,0,0,0-13,7.9,12.58,12.58,0,0,1-5.88-5.88,14.81,14.81,0,0,0,6.89-18.44,1.09,1.09,0,0,0-1.41-.58,14.74,14.74,0,0,0-8.15,17.91,12.84,12.84,0,0,1-8.35,0A14.7,14.7,0,0,0,42.8,26.34a25.64,25.64,0,0,0-4.44-3,1,1,0,0,0-.86-.06,1,1,0,0,0-.62.6,14.77,14.77,0,0,0,6.89,18.44,12.58,12.58,0,0,1-5.88,5.88,14.76,14.76,0,0,0-13-7.9,25.47,25.47,0,0,0-5.3,1,1.06,1.06,0,0,0-.75,1,1,1,0,0,0,.09.42A15,15,0,0,0,22,47.19a14.73,14.73,0,0,0,14.83,3.64,12.72,12.72,0,0,1,.11,8,20.33,20.33,0,0,0-17.73,5.69c-.46.44-1.55,1.69-1.68,1.84a1,1,0,0,0-.22.93,1,1,0,0,0,.63.72c.18.07,4.39,1.73,7,1.73a14.66,14.66,0,0,0,13.36-8.5A18.09,18.09,0,0,1,46.51,66a18.5,18.5,0,0,1,2.8,3.62,10.52,10.52,0,0,1-.28,1l-.06.12c-.1.21-.19.44-.27.65l-.06.16,0,.07-.47.91.14.07a20.6,20.6,0,0,0-1,6.65c0,.31,0,.61.05.9a26.55,26.55,0,0,1-5.51-1.27l-1-.34-.68,2,1,.34a28.55,28.55,0,0,0,6.44,1.43l0,.22,1-.13c.69.06,1.39.1,2.09.1s1.4,0,2.1-.1l.93.13,0-.22A28.67,28.67,0,0,0,60.1,80.9l1-.35-.69-2-1,.34a26,26,0,0,1-5.52,1.27,5.82,5.82,0,0,0,.05-.6V79.4c0-.1,0-.2,0-.29a20.26,20.26,0,0,0-1-6.46l.15-.08-.48-.92c-.13-.33-.26-.67-.4-1v0a10.22,10.22,0,0,1-.28-1.06,18.41,18.41,0,0,1,2.8-3.6A18.07,18.07,0,0,1,63,61.23,14.75,14.75,0,0,0,83.41,68a1,1,0,0,0,.53-.71,1,1,0,0,0-.22-.87C83.54,66.16,82.61,65,82.09,64.52Zm-5.7-22.17a18,18,0,0,1,3.42.55,18,18,0,0,1-2,2.82,12.64,12.64,0,0,1-12.47,3.19A12.66,12.66,0,0,1,76.39,42.35ZM23.44,45.72a12.89,12.89,0,0,1-2.11-2.79,17.43,17.43,0,0,1,3.51-.58,12.66,12.66,0,0,1,11.08,6.56A12.64,12.64,0,0,1,23.44,45.72Zm1.4,21.92a17.9,17.9,0,0,1-4.77-1.07c.22-.24.42-.45.55-.57a18.25,18.25,0,0,1,15.46-5.19A12.57,12.57,0,0,1,24.84,67.64ZM59.9,27.82a13.07,13.07,0,0,1,2.86-2.15,12.7,12.7,0,0,1-6,14.64A12.63,12.63,0,0,1,59.9,27.82ZM52.51,58.9a7,7,0,0,1,6-5c-.45,2-1.9,6.19-6.43,6.78C52.24,60,52.37,59.42,52.51,58.9Zm-3.4,1.74c-4.51-.59-6-4.73-6.42-6.78a7,7,0,0,1,6,5C48.86,59.42,49,60,49.11,60.64ZM50.61,56a8.14,8.14,0,0,1-1.91-4.76,8.19,8.19,0,0,1,1.91-4.75,8.19,8.19,0,0,1,1.91,4.75A8.17,8.17,0,0,1,50.61,56ZM38,29.23a12.69,12.69,0,0,1,.48-3.47,18.73,18.73,0,0,1,2.89,2.06,12.64,12.64,0,0,1,3.19,12.49A12.68,12.68,0,0,1,38,29.23Zm1,30a14.81,14.81,0,0,0-.21-9.19,14.35,14.35,0,0,0,4.08-2.88,14.65,14.65,0,0,0,2.88-4.07,15,15,0,0,0,4.66.82,1.13,1.13,0,0,0-.46.24c-.13.13-3.27,3.19-3.27,7.09a7.77,7.77,0,0,0,.23,1.83,8.93,8.93,0,0,0-5.47-1.32,1,1,0,0,0-.72.36,1,1,0,0,0-.24.77c.28,3.29,2.55,9.4,9,9.86.06.47.1,1,.13,1.45q-.06,1-.06,2A18.84,18.84,0,0,0,48,64.52,20.33,20.33,0,0,0,38.94,59.26Zm10.47,21.1c0-.35,0-.72-.06-1.1a18.31,18.31,0,0,1,1.22-6.88.42.42,0,0,0,0-.1l0,.07.06.14a18.24,18.24,0,0,1,1.18,6.62v.19c0,.1,0,.2,0,.27,0,.26,0,.53-.06.79A19.06,19.06,0,0,1,49.41,80.36Zm12.88-21.1a20.39,20.39,0,0,0-9,5.26,18.84,18.84,0,0,0-1.51,1.71c0-.68,0-1.35-.07-2,0-.49.08-1,.14-1.45,6.46-.46,8.72-6.57,9-9.86a1,1,0,0,0-.24-.77,1,1,0,0,0-.72-.36,8.85,8.85,0,0,0-5.47,1.33,7.92,7.92,0,0,0,.23-1.84c0-3.9-3.14-7-3.27-7.09a1.13,1.13,0,0,0-.46-.24,14.8,14.8,0,0,0,4.67-.82,14.77,14.77,0,0,0,7,7A14.93,14.93,0,0,0,61.66,55,14.6,14.6,0,0,0,62.29,59.26Zm14.1,8.38a12.55,12.55,0,0,1-11.23-6.83A18.25,18.25,0,0,1,80.61,66c.16.15.38.4.63.69A12.63,12.63,0,0,1,76.39,67.64Z"/><path class="cls-1" d="M49.89,33.16a1,1,0,0,0,.72.29,1.07,1.07,0,0,0,.73-.29c.13-.13,3.27-3.19,3.27-7.09s-3.14-7-3.27-7.1a1.06,1.06,0,0,0-1.45,0c-.13.13-3.27,3.2-3.27,7.1S49.76,33,49.89,33.16Zm.72-11.85a8.19,8.19,0,0,1,1.91,4.76,8.16,8.16,0,0,1-1.91,4.75,8.13,8.13,0,0,1-1.91-4.75A8.19,8.19,0,0,1,50.61,21.31Z"/><path class="cls-1" d="M65.14,38.87a1,1,0,0,0,1,1h.07c.62,0,4.66-.11,7.26-2.7,2.76-2.76,2.7-7.15,2.7-7.33a1.06,1.06,0,0,0-1-1c-.19,0-4.57-.06-7.33,2.7S65.13,38.69,65.14,38.87ZM69.31,33A8.15,8.15,0,0,1,74,31a8.13,8.13,0,0,1-2,4.71,8.1,8.1,0,0,1-4.71,2A8.22,8.22,0,0,1,69.31,33Z"/><path class="cls-1" d="M86.06,53.69c-.13-.13-3.19-3.27-7.09-3.27s-7,3.14-7.1,3.27a1,1,0,0,0,0,1.45c.13.14,3.19,3.28,7.1,3.28s7-3.14,7.09-3.28A1,1,0,0,0,86.06,53.69ZM79,56.33a8.19,8.19,0,0,1-4.76-1.91A8.19,8.19,0,0,1,79,52.51a8.19,8.19,0,0,1,4.75,1.91A8.19,8.19,0,0,1,79,56.33Z"/><path class="cls-1" d="M66.16,68.94a1,1,0,0,0-1,1c0,.19-.06,4.57,2.69,7.33h0c2.6,2.6,6.65,2.7,7.26,2.7h.07a1,1,0,0,0,1-1c0-.19.06-4.57-2.7-7.33S66.34,68.94,66.16,68.94Zm3.15,6.88h0a8.22,8.22,0,0,1-2-4.72,8.23,8.23,0,0,1,4.71,2,8.15,8.15,0,0,1,2,4.72A8.29,8.29,0,0,1,69.31,75.82Z"/><path class="cls-1" d="M35.07,68.94c-.18,0-4.57-.06-7.33,2.7h0C25,74.4,25,78.78,25,79a1,1,0,0,0,1,1h.08c.61,0,4.66-.1,7.25-2.7,2.76-2.76,2.71-7.14,2.7-7.33A1,1,0,0,0,35.07,68.94Zm-3.15,6.88a8.29,8.29,0,0,1-4.72,2,8.24,8.24,0,0,1,2-4.72,8.23,8.23,0,0,1,4.71-2A8.22,8.22,0,0,1,31.92,75.82Z"/><path class="cls-1" d="M29.35,55.14a1,1,0,0,0,0-1.45c-.12-.13-3.19-3.27-7.09-3.27s-7,3.14-7.09,3.27a1,1,0,0,0,0,1.45c.13.14,3.19,3.28,7.09,3.28S29.23,55.28,29.35,55.14Zm-7.09-2.63A8.19,8.19,0,0,1,27,54.42a8.19,8.19,0,0,1-4.76,1.91,8.16,8.16,0,0,1-4.75-1.91A8.16,8.16,0,0,1,22.26,52.51Z"/><path class="cls-1" d="M35,39.9h.07a1,1,0,0,0,1-1c0-.18.06-4.57-2.7-7.33h0c-2.76-2.76-7.13-2.68-7.33-2.7a1.05,1.05,0,0,0-1,1c0,.18-.06,4.57,2.7,7.33C30.34,39.79,34.38,39.9,35,39.9ZM31.92,33h0a8.29,8.29,0,0,1,2,4.71,8.1,8.1,0,0,1-4.71-2,8.19,8.19,0,0,1-2-4.71A8.15,8.15,0,0,1,31.92,33Z"/></svg>